<svg width="351" height="86" viewBox="0 0 351 86" fill="none" xmlns="http://www.w3.org/2000/svg">
<path d="M66.0896 63.4718V5.17082H81.9292V13.6935C85.1828 7.11529 91.4923 3.82617 100.864 3.82617C105.31 3.82617 109.321 4.8017 112.891 6.73958C116.46 8.68404 119.279 11.4458 121.347 15.0382C123.409 18.6239 124.443 22.8885 124.443 27.8189V63.4718H108.366V31.5167C108.366 26.4347 107.134 22.7567 104.671 20.4761C102.208 18.1954 98.9939 17.0551 95.0224 17.0551C91.6108 17.0551 88.6075 18.1954 86.0324 20.4761C83.4506 22.7567 82.1597 26.4347 82.1597 31.5167V63.4718H66.0896Z" fill="#FBFBFB"/>
<path d="M130.16 63.4709V5.22131H145.736V16.3114C146.769 12.1296 148.866 8.93558 152.035 6.73599C155.205 4.53641 159.485 3.5815 164.877 3.87785V18.1027H162.615C158.019 18.1027 154.133 19.4857 150.964 22.2451C147.794 25.011 146.21 28.8175 146.21 33.6711V63.4709H130.16Z" fill="#FBFBFB"/>
<path d="M233.727 85.9873V5.24362H249.539V14.6649C251.202 11.4476 253.563 8.86974 256.613 6.92482C259.664 4.9799 263.885 4.01074 269.276 4.01074C273.556 4.01074 277.541 4.81508 281.222 6.42376C284.911 8.03243 288.139 10.2345 290.914 13.0431C293.688 15.8451 295.864 19.102 297.455 22.8006C299.04 26.4992 299.835 30.4484 299.835 34.6349C299.835 40.2389 298.468 45.3419 295.733 49.9437C292.998 54.539 289.329 58.2047 284.733 60.9341C280.138 63.6636 274.983 65.0284 269.276 65.0284C263.964 65.0284 259.802 64.1119 256.791 62.2791C253.779 60.4463 251.439 58.0003 249.775 54.9346V86.0005H233.727V85.9873ZM266.659 51.3348C270.065 51.3348 273.057 50.5503 275.634 48.9812C278.211 47.412 280.21 45.3353 281.637 42.7574C283.063 40.1796 283.773 37.4303 283.773 34.5163C283.773 31.4505 283.063 28.6485 281.637 26.1037C280.21 23.5654 278.205 21.5216 275.634 19.992C273.057 18.4625 270.065 17.6911 266.659 17.6911C263.254 17.6911 260.118 18.4756 257.507 20.0448C254.891 21.6139 252.872 23.6709 251.445 26.2157C250.019 28.7606 249.309 31.5626 249.309 34.6283C249.309 37.694 250.019 40.384 251.445 42.9288C252.872 45.4737 254.891 47.5109 257.507 49.0405C260.124 50.5766 263.175 51.3414 266.659 51.3414V51.3348Z" fill="#FBFBFB"/>
<path d="M326.156 64.9416C315.74 64.9416 307.151 61.5462 300.389 54.7555L311.241 45.4644C315.773 50.2415 320.622 52.6301 325.794 52.6301C328.577 52.6301 330.702 52.0511 332.173 50.893C333.644 49.7349 334.383 48.3004 334.383 46.583C334.383 45.5367 334.125 44.6418 333.604 43.8983C333.083 43.1547 332.014 42.4441 330.385 41.7729C328.756 41.1017 326.308 40.4305 323.049 39.7594C317.482 38.4894 313.345 36.9233 310.641 35.0611C307.936 33.199 306.148 31.1065 305.271 28.7903C304.394 26.4806 303.958 24.092 303.958 21.6245C303.958 16.5512 306.003 12.3202 310.1 8.91823C314.196 5.52287 319.863 3.8252 327.1 3.8252C332.107 3.8252 336.401 4.53585 339.983 5.95058C343.559 7.37189 346.943 10.0171 350.123 13.8994L338.433 22.2957C336.922 20.0584 335.234 18.4529 333.367 17.4856C331.5 16.5183 329.527 16.0314 327.463 16.0314C325.233 16.0314 323.386 16.4393 321.915 17.2619C320.444 18.0844 319.705 19.3872 319.705 21.177C319.705 22.1443 320.18 23.0984 321.136 24.0328C322.093 24.9672 324.395 25.8818 328.056 26.7767C334.099 28.1981 338.71 29.8562 341.896 31.7579C345.076 33.6596 347.266 35.8047 348.46 38.1933C349.654 40.5819 350.248 43.2337 350.248 46.1421C350.248 49.7217 349.192 52.9328 347.088 55.7689C344.977 58.6049 342.114 60.8422 338.499 62.4872C334.877 64.1256 330.761 64.9482 326.15 64.9482L326.156 64.9416Z" fill="#FBFBFB"/>
<path d="M13.9004 3.38124L13.5591 5.22069C13.1519 7.43053 13.3068 9.65936 14.0129 11.7863C21.2139 5.26788 30.1582 2.18209 38.9449 3.26535C40.1155 3.40871 41.2774 3.63042 42.3941 3.92703C49.7807 5.88895 54.6963 10.7197 55.8782 17.1746C56.7184 21.7576 55.6097 26.1705 52.6726 29.9333C51.8657 30.9695 50.9108 31.954 49.8345 32.8566C47.1142 35.1255 43.7599 36.7418 40.137 37.5297C35.4046 38.5597 30.1651 38.3752 24.985 37.0024C22.1234 36.2424 19.3129 35.1204 16.718 33.7082C16.4745 36.8459 17.074 39.9437 18.482 42.645C20.6616 46.839 24.368 49.8125 28.9105 51.019C33.7845 52.3136 38.9186 51.3313 42.9941 48.327C45.7695 46.2807 47.7913 43.4943 48.8391 40.2755L49.3462 38.7221L62.6783 39.9979L62.1202 42.2701C60.0657 50.6551 54.3969 57.7201 46.5681 61.6607C40.0197 64.9577 32.5267 65.7417 25.4658 63.8663C22.9707 63.2036 20.5362 62.2125 18.2349 60.9248C10.4212 56.5532 4.93287 48.5603 3.54942 39.5415C2.73848 34.2277 3.33243 28.8248 5.2723 23.8507C0.646908 17.3469 -1.04488 9.46878 0.634216 2.05774L1.10004 0L13.8989 3.38704L13.9004 3.38124ZM42.789 19.7739C42.7059 19.0784 42.3118 18.4493 41.6901 18.0049C40.9328 17.4624 40.0582 17.0657 39.0266 16.7886C38.4799 16.6434 37.8894 16.5331 37.2262 16.45C32.0933 15.94 27.04 17.8344 22.784 21.8178C24.5137 22.7986 26.5318 23.6232 28.585 24.1685C34.4768 25.7334 39.5457 24.8424 42.1466 21.7816C42.6496 21.1891 42.8802 20.4745 42.7964 19.7696L42.789 19.7739Z" fill="#FBFBFB"/>
<path d="M164.712 34.3113C164.712 16.6615 178.864 3.64453 196.78 3.64453C214.696 3.64453 228.848 16.6615 228.848 34.3113C228.848 51.9611 214.696 64.8652 196.78 64.8652C178.864 64.8652 164.712 51.9536 164.712 34.3113ZM196.78 51.0723C206.14 51.0723 212.756 43.7954 212.756 34.3038C212.756 24.8122 206.14 17.4299 196.78 17.4299C187.421 17.4299 180.805 24.6013 180.805 34.3038C180.805 44.0063 187.312 51.0723 196.78 51.0723Z" fill="#FBFBFB"/>
</svg>
