<svg width="63" height="65" viewBox="0 0 63 65" fill="none" xmlns="http://www.w3.org/2000/svg">
<path d="M13.9004 3.38124L13.5591 5.22069C13.1519 7.43053 13.3068 9.65936 14.0129 11.7863C21.2139 5.26788 30.1582 2.18209 38.9449 3.26535C40.1155 3.40871 41.2774 3.63042 42.3941 3.92703C49.7807 5.88895 54.6963 10.7197 55.8782 17.1746C56.7184 21.7576 55.6097 26.1705 52.6726 29.9333C51.8657 30.9695 50.9108 31.954 49.8345 32.8566C47.1142 35.1255 43.7599 36.7418 40.137 37.5297C35.4046 38.5597 30.1651 38.3752 24.985 37.0024C22.1234 36.2424 19.3129 35.1204 16.718 33.7082C16.4745 36.8459 17.074 39.9437 18.482 42.645C20.6616 46.839 24.368 49.8125 28.9105 51.019C33.7845 52.3136 38.9186 51.3313 42.9941 48.327C45.7695 46.2807 47.7913 43.4943 48.8391 40.2755L49.3462 38.7221L62.6783 39.9979L62.1202 42.2701C60.0657 50.6551 54.3969 57.7201 46.5681 61.6607C40.0197 64.9577 32.5267 65.7417 25.4658 63.8663C22.9707 63.2036 20.5362 62.2125 18.2349 60.9248C10.4212 56.5532 4.93287 48.5603 3.54942 39.5415C2.73848 34.2277 3.33243 28.8248 5.2723 23.8507C0.646907 17.3469 -1.04488 9.46878 0.634215 2.05774L1.10004 0L13.8989 3.38704L13.9004 3.38124ZM42.789 19.7739C42.7059 19.0784 42.3118 18.4493 41.6901 18.0049C40.9328 17.4624 40.0582 17.0657 39.0266 16.7886C38.4799 16.6434 37.8894 16.5331 37.2262 16.45C32.0933 15.94 27.04 17.8344 22.784 21.8178C24.5137 22.7986 26.5318 23.6232 28.585 24.1685C34.4768 25.7334 39.5457 24.8424 42.1466 21.7816C42.6496 21.1891 42.8802 20.4745 42.7964 19.7696L42.789 19.7739Z" fill="#8C88FF"/>
</svg>
